<mxfile host="Electron" modified="2023-12-05T00:11:53.657Z" agent="Mozilla/5.0 (Windows NT 10.0; Win64; x64) AppleWebKit/537.36 (KHTML, like Gecko) draw.io/21.8.2 Chrome/114.0.5735.289 Electron/25.8.1 Safari/537.36" etag="iXSmMmzI-O9Ehrm_yu_E" version="21.8.2" type="device">
  <diagram name="Page-1" id="xjpTpNcjmjb0Jv6PtX34">
    <mxGraphModel dx="1178" dy="648" grid="1" gridSize="10" guides="1" tooltips="1" connect="1" arrows="1" fold="1" page="1" pageScale="1" pageWidth="850" pageHeight="1100" math="0" shadow="0">
      <root>
        <mxCell id="0" />
        <mxCell id="1" parent="0" />
        <mxCell id="YP-CuPfZtMAJcG3_BCYy-1" value="User" style="shape=umlActor;verticalLabelPosition=bottom;verticalAlign=top;html=1;outlineConnect=0;" parent="1" vertex="1">
          <mxGeometry x="110" y="330" width="55" height="110" as="geometry" />
        </mxCell>
        <mxCell id="YP-CuPfZtMAJcG3_BCYy-7" value="" style="rounded=0;whiteSpace=wrap;html=1;fillColor=none;" parent="1" vertex="1">
          <mxGeometry x="170" y="90" width="565" height="600" as="geometry" />
        </mxCell>
        <mxCell id="YP-CuPfZtMAJcG3_BCYy-8" value="&lt;font style=&quot;font-size: 24px;&quot;&gt;Super Eats&lt;/font&gt;" style="text;html=1;strokeColor=none;fillColor=none;align=center;verticalAlign=middle;whiteSpace=wrap;rounded=0;" parent="1" vertex="1">
          <mxGeometry x="165" y="60" width="135" height="30" as="geometry" />
        </mxCell>
        <mxCell id="YP-CuPfZtMAJcG3_BCYy-28" style="rounded=0;orthogonalLoop=1;jettySize=auto;html=1;entryX=0.5;entryY=0;entryDx=0;entryDy=0;startArrow=classic;startFill=1;dashed=1;endArrow=none;endFill=0;" parent="1" source="YP-CuPfZtMAJcG3_BCYy-11" target="YP-CuPfZtMAJcG3_BCYy-15" edge="1">
          <mxGeometry relative="1" as="geometry" />
        </mxCell>
        <mxCell id="YP-CuPfZtMAJcG3_BCYy-31" value="&amp;lt;&amp;lt;extends&amp;gt;&amp;gt;" style="edgeLabel;html=1;align=center;verticalAlign=middle;resizable=0;points=[];" parent="YP-CuPfZtMAJcG3_BCYy-28" vertex="1" connectable="0">
          <mxGeometry x="-0.2045" relative="1" as="geometry">
            <mxPoint x="7" as="offset" />
          </mxGeometry>
        </mxCell>
        <mxCell id="YP-CuPfZtMAJcG3_BCYy-11" value="Search for Food" style="ellipse;whiteSpace=wrap;html=1;" parent="1" vertex="1">
          <mxGeometry x="330" y="340" width="105" height="70" as="geometry" />
        </mxCell>
        <mxCell id="YP-CuPfZtMAJcG3_BCYy-15" value="Create Order" style="ellipse;whiteSpace=wrap;html=1;" parent="1" vertex="1">
          <mxGeometry x="555" y="420" width="105" height="70" as="geometry" />
        </mxCell>
        <mxCell id="YP-CuPfZtMAJcG3_BCYy-29" style="rounded=0;orthogonalLoop=1;jettySize=auto;html=1;exitX=1;exitY=1;exitDx=0;exitDy=0;startArrow=classic;startFill=1;endArrow=none;endFill=0;dashed=1;entryX=0;entryY=1;entryDx=0;entryDy=0;" parent="1" source="YP-CuPfZtMAJcG3_BCYy-17" target="YP-CuPfZtMAJcG3_BCYy-15" edge="1">
          <mxGeometry relative="1" as="geometry">
            <mxPoint x="435" y="525" as="targetPoint" />
          </mxGeometry>
        </mxCell>
        <mxCell id="YP-CuPfZtMAJcG3_BCYy-32" value="&amp;lt;&amp;lt;extends&amp;gt;&amp;gt;" style="edgeLabel;html=1;align=center;verticalAlign=middle;resizable=0;points=[];" parent="YP-CuPfZtMAJcG3_BCYy-29" vertex="1" connectable="0">
          <mxGeometry x="-0.2414" relative="1" as="geometry">
            <mxPoint x="9" y="6" as="offset" />
          </mxGeometry>
        </mxCell>
        <mxCell id="YP-CuPfZtMAJcG3_BCYy-17" value="Check Order History" style="ellipse;whiteSpace=wrap;html=1;" parent="1" vertex="1">
          <mxGeometry x="280" y="420" width="105" height="70" as="geometry" />
        </mxCell>
        <mxCell id="YP-CuPfZtMAJcG3_BCYy-20" value="Edit Account" style="ellipse;whiteSpace=wrap;html=1;" parent="1" vertex="1">
          <mxGeometry x="435" y="240" width="120" height="80" as="geometry" />
        </mxCell>
        <mxCell id="YP-CuPfZtMAJcG3_BCYy-21" value="Add Payment Info" style="ellipse;whiteSpace=wrap;html=1;" parent="1" vertex="1">
          <mxGeometry x="435" y="120" width="120" height="80" as="geometry" />
        </mxCell>
        <mxCell id="YP-CuPfZtMAJcG3_BCYy-22" value="View Notifications" style="ellipse;whiteSpace=wrap;html=1;" parent="1" vertex="1">
          <mxGeometry x="400" y="560" width="105" height="70" as="geometry" />
        </mxCell>
        <mxCell id="YP-CuPfZtMAJcG3_BCYy-26" style="rounded=0;orthogonalLoop=1;jettySize=auto;html=1;exitX=1;exitY=0.3333333333333333;exitDx=0;exitDy=0;exitPerimeter=0;entryX=0;entryY=0;entryDx=0;entryDy=0;endArrow=none;endFill=0;" parent="1" source="YP-CuPfZtMAJcG3_BCYy-1" target="YP-CuPfZtMAJcG3_BCYy-17" edge="1">
          <mxGeometry relative="1" as="geometry">
            <mxPoint x="175" y="377" as="sourcePoint" />
            <mxPoint x="270" y="355" as="targetPoint" />
          </mxGeometry>
        </mxCell>
        <mxCell id="YP-CuPfZtMAJcG3_BCYy-27" style="rounded=0;orthogonalLoop=1;jettySize=auto;html=1;exitX=1;exitY=1;exitDx=0;exitDy=0;exitPerimeter=0;entryX=0;entryY=0.5;entryDx=0;entryDy=0;endArrow=none;endFill=0;" parent="1" source="YP-CuPfZtMAJcG3_BCYy-1" target="YP-CuPfZtMAJcG3_BCYy-22" edge="1">
          <mxGeometry relative="1" as="geometry">
            <mxPoint x="185" y="387" as="sourcePoint" />
            <mxPoint x="280" y="365" as="targetPoint" />
          </mxGeometry>
        </mxCell>
        <mxCell id="YP-CuPfZtMAJcG3_BCYy-40" style="rounded=0;orthogonalLoop=1;jettySize=auto;html=1;exitX=1;exitY=0.3333333333333333;exitDx=0;exitDy=0;exitPerimeter=0;endArrow=none;endFill=0;entryX=0;entryY=0.5;entryDx=0;entryDy=0;" parent="1" source="YP-CuPfZtMAJcG3_BCYy-1" target="YP-CuPfZtMAJcG3_BCYy-11" edge="1">
          <mxGeometry relative="1" as="geometry">
            <mxPoint x="220" y="372.38" as="sourcePoint" />
            <mxPoint x="265" y="380.0004379562042" as="targetPoint" />
          </mxGeometry>
        </mxCell>
        <mxCell id="YP-CuPfZtMAJcG3_BCYy-46" value="" style="endArrow=none;html=1;rounded=0;exitX=0.75;exitY=0.1;exitDx=0;exitDy=0;exitPerimeter=0;entryX=0;entryY=0.5;entryDx=0;entryDy=0;" parent="1" source="YP-CuPfZtMAJcG3_BCYy-1" target="YP-CuPfZtMAJcG3_BCYy-20" edge="1">
          <mxGeometry width="50" height="50" relative="1" as="geometry">
            <mxPoint x="170" y="370" as="sourcePoint" />
            <mxPoint x="410" y="280" as="targetPoint" />
          </mxGeometry>
        </mxCell>
        <mxCell id="YP-CuPfZtMAJcG3_BCYy-50" value="" style="endArrow=none;html=1;rounded=0;entryX=0;entryY=0.5;entryDx=0;entryDy=0;exitX=0.5;exitY=0;exitDx=0;exitDy=0;exitPerimeter=0;" parent="1" source="YP-CuPfZtMAJcG3_BCYy-1" target="YP-CuPfZtMAJcG3_BCYy-21" edge="1">
          <mxGeometry width="50" height="50" relative="1" as="geometry">
            <mxPoint x="300" y="340" as="sourcePoint" />
            <mxPoint x="350" y="290" as="targetPoint" />
          </mxGeometry>
        </mxCell>
        <mxCell id="keskknFgzkKH-72lprX5-1" value="&amp;lt;&amp;lt;include&amp;gt;&amp;gt;" style="html=1;verticalAlign=bottom;labelBackgroundColor=none;endArrow=open;endFill=0;dashed=1;rounded=0;entryX=0.5;entryY=0;entryDx=0;entryDy=0;" edge="1" parent="1" source="YP-CuPfZtMAJcG3_BCYy-21" target="YP-CuPfZtMAJcG3_BCYy-20">
          <mxGeometry width="160" relative="1" as="geometry">
            <mxPoint x="490" y="230" as="sourcePoint" />
            <mxPoint x="650" y="230" as="targetPoint" />
          </mxGeometry>
        </mxCell>
        <mxCell id="keskknFgzkKH-72lprX5-2" value="&amp;lt;&amp;lt;include&amp;gt;&amp;gt;" style="html=1;verticalAlign=bottom;labelBackgroundColor=none;endArrow=open;endFill=0;dashed=1;rounded=0;exitX=0;exitY=1;exitDx=0;exitDy=0;entryX=1;entryY=0;entryDx=0;entryDy=0;" edge="1" parent="1" source="YP-CuPfZtMAJcG3_BCYy-15" target="YP-CuPfZtMAJcG3_BCYy-22">
          <mxGeometry width="160" relative="1" as="geometry">
            <mxPoint x="530" y="540" as="sourcePoint" />
            <mxPoint x="690" y="540" as="targetPoint" />
          </mxGeometry>
        </mxCell>
      </root>
    </mxGraphModel>
  </diagram>
</mxfile>
